<svg xmlns="http://www.w3.org/2000/svg" viewBox="0 0 154 154"><defs><style>.a{fill:none;}.a,.b{stroke:#12ffa2;stroke-linecap:round;stroke-linejoin:round;stroke-width:4px;}.b{fill:#12ffa2;}</style></defs><title>Artboard 2</title><polygon class="a" points="133.21 39.42 113.82 89.88 113.82 89.89 110.73 97.93 96.36 109.31 57.64 109.31 43.27 97.93 40.18 89.89 20.79 39.42 26.97 36.02 77 8.52 127.03 36.02 133.21 39.42"/><rect class="a" x="31.64" y="109.31" width="90.71" height="24.12"/><polygon class="b" points="44.6 133.43 44.6 145.49 18.68 145.49 18.68 121.37 31.64 121.37 31.64 133.43 44.6 133.43"/><polygon class="b" points="135.31 121.37 135.31 145.49 109.4 145.49 109.4 133.43 122.36 133.43 122.36 121.37 135.31 121.37"/><polygon class="b" points="43.27 97.93 31.47 90.41 7.3 35.01 20.79 39.42 43.27 97.93"/><polygon class="b" points="110.73 97.93 122.53 90.41 146.7 35.01 133.21 39.42 110.73 97.93"/><polygon class="b" points="101 57.81 77 62.55 53 57.81 77 38.6 101 57.81"/><polygon class="a" points="101 57.81 77 87.5 53 57.81 77 62.55 101 57.81"/></svg>