<svg xmlns="http://www.w3.org/2000/svg" viewBox="0 0 154 154"><defs><style>.a{fill:none;stroke:#12ffa2;stroke-linecap:round;stroke-linejoin:round;stroke-width:4px;}</style></defs><title>Artboard 9</title><rect class="a" x="25.61" y="25.61" width="102.78" height="102.78"/><line class="a" x1="25.61" y1="94.6" x2="128.39" y2="94.6"/><line class="a" x1="25.61" y1="59.4" x2="128.39" y2="59.4"/><line class="a" x1="94.6" y1="25.61" x2="94.6" y2="128.39"/><line class="a" x1="59.4" y1="25.61" x2="59.4" y2="128.39"/><polygon class="a" points="25.61 107.88 10.78 107.88 10.78 143.22 36.09 143.22 36.09 128.39 25.61 128.39 25.61 107.88"/><polygon class="a" points="92.22 128.39 92.22 143.22 143.22 143.22 143.22 116.16 128.39 116.16 128.39 128.39 92.22 128.39"/><polygon class="a" points="128.39 66.42 143.22 66.42 143.22 10.78 111.55 10.78 111.55 25.61 128.39 25.61 128.39 66.42"/><polygon class="a" points="25.61 38.17 10.78 38.17 10.78 10.78 36.09 10.78 36.09 25.61 25.61 25.61 25.61 38.17"/></svg>