<svg xmlns="http://www.w3.org/2000/svg" viewBox="0 0 154 154"><defs><style>.a{fill:none;stroke:#12ffa2;stroke-linecap:round;stroke-linejoin:round;stroke-width:4px;}</style></defs><title>Artboard 10</title><polygon class="a" points="97.18 33.59 77 25.15 56.82 33.59 47.71 52.27 58.67 118.64 77 118.64 95.33 118.64 106.29 52.27 97.18 33.59"/><polygon class="a" points="53.59 87.89 33.6 128.85 58.67 118.64 53.59 87.89"/><polygon class="a" points="100.41 87.89 120.39 128.85 95.33 118.64 100.41 87.89"/><polygon class="a" points="81.05 46.34 72.95 46.34 66.39 51.16 63.88 58.96 66.39 66.76 72.95 71.58 81.05 71.58 87.61 66.76 90.12 58.96 87.61 51.16 81.05 46.34"/><rect class="a" x="64.74" y="118.64" width="24.51" height="9.44"/><polygon class="a" points="21.71 103.25 15.98 103.25 11.36 106.66 9.59 112.16 11.36 117.67 15.98 121.07 21.71 121.07 26.34 117.67 28.11 112.16 26.34 106.66 21.71 103.25"/><polygon class="a" points="136.34 27.41 130.62 27.41 125.98 30.82 124.22 36.32 125.98 41.83 130.62 45.23 136.34 45.23 140.97 41.83 142.74 36.32 140.97 30.82 136.34 27.41"/><polyline class="a" points="118.65 24.37 98.63 9.65 55.37 9.65 20.37 35.38 7 77 12.51 94.14"/><polyline class="a" points="129.17 121.9 133.63 118.62 147 77 139.43 53.44"/><polyline class="a" points="46.73 138 55.37 144.35 98.63 144.35 108.13 137.37"/></svg>