<svg xmlns="http://www.w3.org/2000/svg" viewBox="0 0 154 154"><defs><style>.a{fill:none;stroke:#12ffa2;stroke-linecap:round;stroke-linejoin:round;stroke-width:4px;}</style></defs><title>Artboard 7</title><polygon class="a" points="134.93 19.52 131.5 35.51 123.4 73.36 119.98 89.33 83.7 103.24 77 105.81 70.3 103.24 34.02 89.33 30.6 73.36 22.5 35.51 19.07 19.52 49.56 19.52 49.9 21.83 53.94 49.04 55.64 60.52 77 72.37 98.36 60.52 100.06 49.04 104.1 21.83 104.44 19.52 134.93 19.52"/><polygon class="a" points="83.7 103.24 83.7 119.52 70.3 119.52 70.3 103.24 77 105.81 83.7 103.24"/><polygon class="a" points="111.33 119.52 121.33 143.67 32.67 143.67 42.67 119.52 111.33 119.52"/><polygon class="a" points="30.6 73.36 20.61 73.36 9.8 35.51 22.5 35.51 30.6 73.36"/><polygon class="a" points="133.39 73.36 123.4 73.36 131.5 35.51 144.2 35.51 133.39 73.36"/><polygon class="a" points="105.8 10.33 104.44 19.52 104.1 21.83 100.06 49.04 98.36 60.52 77 72.37 55.64 60.52 53.94 49.04 49.9 21.83 49.56 19.52 48.2 10.33 105.8 10.33"/><line class="a" x1="38.46" y1="129.69" x2="115.19" y2="129.69"/></svg>