<svg xmlns="http://www.w3.org/2000/svg" viewBox="0 0 154 154"><defs><style>.a{fill:#12ffa2;}.a,.b{stroke:#12ffa2;stroke-linecap:round;stroke-linejoin:round;stroke-width:4px;}.b{fill:none;}</style></defs><title>Artboard 6</title><polygon class="a" points="110.54 26.35 90.89 43.41 63.11 43.41 43.46 26.35 63.11 8.36 90.89 8.36 110.54 26.35"/><polygon class="b" points="110.54 26.35 110.54 51.79 106.59 55.4 90.89 69.77 63.11 69.77 47.41 55.4 43.46 51.79 43.46 26.35 63.11 43.41 90.89 43.41 110.54 26.35"/><polygon class="b" points="120.98 72.35 120.98 116.98 95.22 145.64 58.78 145.64 33.02 116.98 33.02 72.35 47.41 55.4 63.11 69.77 90.89 69.77 106.59 55.4 120.98 72.35"/><polyline class="b" points="106.48 133.11 132.4 116.62 145 79.1 132.4 43.58 110.53 30.37"/><polyline class="b" points="43.47 30.37 21.61 43.58 9 79.1 21.61 116.62 47.52 133.11"/><polygon class="a" points="78.79 85.13 91.46 106.73 66.12 106.73 78.79 85.13"/><polygon class="b" points="78.79 126.82 91.46 106.73 66.12 106.73 78.79 126.82"/><polyline class="b" points="43.47 38.34 63.11 55.41 90.89 55.41 110.53 38.34"/></svg>