<svg xmlns="http://www.w3.org/2000/svg" viewBox="0 0 154 154"><defs><style>.a{fill:none;stroke:#12ffa2;stroke-linecap:round;stroke-linejoin:round;stroke-width:4px;}</style></defs><title>Artboard 11</title><polygon class="a" points="141.62 77.21 132.87 92.35 120.06 92.35 112.87 104.88 119.24 115.97 119.24 115.98 109.31 133.18 91.34 133.18 91.38 133.11 84.19 120.58 69.81 120.58 62.62 133.11 62.66 133.18 44.69 133.18 34.76 115.98 34.76 115.97 41.13 104.88 33.94 92.35 21.13 92.35 12.38 77.21 20.89 62.48 33.94 62.48 41.13 49.95 34.65 38.66 44.69 21.25 62.83 21.25 69.81 33.42 84.19 33.42 91.17 21.25 109.31 21.25 119.36 38.66 112.87 49.95 120.06 62.48 133.11 62.48 141.62 77.21"/><polygon class="a" points="41.13 49.95 33.94 62.48 19.57 62.48 12.38 49.95 19.57 37.42 33.94 37.42 34.65 38.66 41.13 49.95"/><polygon class="a" points="91.38 20.89 91.17 21.25 84.19 33.42 69.81 33.42 62.83 21.25 62.62 20.89 69.81 8.36 84.19 8.36 91.38 20.89"/><polygon class="a" points="141.62 49.95 134.43 62.48 120.06 62.48 112.87 49.95 119.36 38.66 120.06 37.42 134.43 37.42 141.62 49.95"/><polygon class="a" points="141.62 104.88 134.43 117.41 120.06 117.41 119.24 115.98 119.24 115.97 112.87 104.88 120.06 92.35 134.43 92.35 141.62 104.88"/><polygon class="a" points="91.38 133.11 91.34 133.18 84.19 145.64 69.81 145.64 62.66 133.18 62.62 133.11 69.81 120.58 84.19 120.58 91.38 133.11"/><polygon class="a" points="41.13 104.88 34.76 115.97 34.76 115.98 33.94 117.41 19.57 117.41 12.38 104.88 19.57 92.35 33.94 92.35 41.13 104.88"/><polygon class="a" points="141.62 77.21 132.87 92.35 120.06 92.35 112.87 104.88 119.24 115.97 119.24 115.98 109.31 133.18 91.34 133.18 91.38 133.11 84.19 120.58 69.81 120.58 62.62 133.11 62.66 133.18 44.69 133.18 34.76 115.98 34.76 115.97 41.13 104.88 33.94 92.35 21.13 92.35 12.38 77.21 20.89 62.48 33.94 62.48 41.13 49.95 34.65 38.66 44.69 21.25 62.83 21.25 69.81 33.42 84.19 33.42 91.17 21.25 109.31 21.25 119.36 38.66 112.87 49.95 120.06 62.48 133.11 62.48 141.62 77.21"/><polygon class="a" points="92.27 50.56 61.73 50.56 46.47 77 61.73 103.44 92.27 103.44 107.53 77 92.27 50.56"/></svg>