<svg width="154" height="154" viewBox="0 0 154 154" fill="none" xmlns="http://www.w3.org/2000/svg">
<path d="M97.18 33.59L77 25.15L56.82 33.59L47.71 52.27L58.67 118.64H77H95.33L106.29 52.27L97.18 33.59Z" stroke="#12FFA2" stroke-width="4" stroke-linecap="round" stroke-linejoin="round"/>
<path d="M53.59 87.89L33.6 128.85L58.67 118.64L53.59 87.89Z" stroke="#12FFA2" stroke-width="4" stroke-linecap="round" stroke-linejoin="round"/>
<path d="M100.41 87.89L120.39 128.85L95.33 118.64L100.41 87.89Z" stroke="#12FFA2" stroke-width="4" stroke-linecap="round" stroke-linejoin="round"/>
<path d="M81.05 46.34H72.95L66.39 51.16L63.88 58.96L66.39 66.76L72.95 71.58H81.05L87.61 66.76L90.12 58.96L87.61 51.16L81.05 46.34Z" fill="#12FFA2" stroke="#12FFA2" stroke-width="4" stroke-linecap="round" stroke-linejoin="round"/>
<path d="M89.25 118.64H64.74V128.08H89.25V118.64Z" fill="#12FFA2" stroke="#12FFA2" stroke-width="4" stroke-linecap="round" stroke-linejoin="round"/>
<path d="M21.71 103.25H15.98L11.36 106.66L9.59 112.16L11.36 117.67L15.98 121.07H21.71L26.34 117.67L28.11 112.16L26.34 106.66L21.71 103.25Z" fill="#12FFA2" stroke="#12FFA2" stroke-width="4" stroke-linecap="round" stroke-linejoin="round"/>
<path d="M136.34 27.41H130.62L125.98 30.82L124.22 36.32L125.98 41.83L130.62 45.23H136.34L140.97 41.83L142.74 36.32L140.97 30.82L136.34 27.41Z" fill="#12FFA2" stroke="#12FFA2" stroke-width="4" stroke-linecap="round" stroke-linejoin="round"/>
<path d="M118.65 24.37L98.63 9.65002H55.37L20.37 35.38L7 77L12.51 94.14" stroke="#12FFA2" stroke-width="4" stroke-linecap="round" stroke-linejoin="round"/>
<path d="M129.17 121.9L133.63 118.62L147 77L139.43 53.44" stroke="#12FFA2" stroke-width="4" stroke-linecap="round" stroke-linejoin="round"/>
<path d="M46.73 138L55.37 144.35H98.63L108.13 137.37" stroke="#12FFA2" stroke-width="4" stroke-linecap="round" stroke-linejoin="round"/>
</svg>
