<svg width="154" height="154" viewBox="0 0 154 154" fill="none" xmlns="http://www.w3.org/2000/svg">
<path d="M133.21 39.42L113.82 89.88V89.89L110.73 97.93L96.36 109.31H57.64L43.27 97.93L40.18 89.89L20.79 39.42L26.97 36.02L77 8.51999L127.03 36.02L133.21 39.42Z" stroke="#12FFA2" stroke-width="4" stroke-linecap="round" stroke-linejoin="round"/>
<path d="M122.35 109.31H31.64V133.43H122.35V109.31Z" stroke="#12FFA2" stroke-width="4" stroke-linecap="round" stroke-linejoin="round"/>
<path d="M44.6 133.43V145.49H18.68V121.37H31.64V133.43H44.6Z" fill="#12FFA2" stroke="#12FFA2" stroke-width="4" stroke-linecap="round" stroke-linejoin="round"/>
<path d="M135.31 121.37V145.49H109.4V133.43H122.36V121.37H135.31Z" fill="#12FFA2" stroke="#12FFA2" stroke-width="4" stroke-linecap="round" stroke-linejoin="round"/>
<path d="M43.27 97.93L31.47 90.41L7.3 35.01L20.79 39.42L43.27 97.93Z" fill="#12FFA2" stroke="#12FFA2" stroke-width="4" stroke-linecap="round" stroke-linejoin="round"/>
<path d="M110.73 97.93L122.53 90.41L146.7 35.01L133.21 39.42L110.73 97.93Z" fill="#12FFA2" stroke="#12FFA2" stroke-width="4" stroke-linecap="round" stroke-linejoin="round"/>
<path d="M101 57.81L77 62.55L53 57.81L77 38.6L101 57.81Z" fill="#12FFA2" stroke="#12FFA2" stroke-width="4" stroke-linecap="round" stroke-linejoin="round"/>
<path d="M101 57.81L77 87.5L53 57.81L77 62.55L101 57.81Z" stroke="#12FFA2" stroke-width="4" stroke-linecap="round" stroke-linejoin="round"/>
</svg>
