<svg width="512" height="512" viewBox="0 0 512 512" fill="none" xmlns="http://www.w3.org/2000/svg">
<path d="M425 190.6V443.21C425 458.94 412.13 469.55 396.39 466.77L82.58 411.45C66.84 408.67 54 393.52 54 377.79V125.18C54 109.44 66.87 98.83 82.61 101.61L396.4 156.94C412.11 159.71 425 174.86 425 190.6Z" stroke="#11FF9F" stroke-width="5" stroke-linecap="round" stroke-linejoin="round"/>
<path d="M53.97 162.12L424.98 227.54" stroke="#11FF9F" stroke-width="5" stroke-linecap="round" stroke-linejoin="round"/>
<path d="M262.28 299.66L216.67 291.61C208.67 290.21 202.23 282.61 202.23 274.61V229C202.23 221 208.7 215.7 216.67 217.1L262.28 225.1C270.28 226.5 276.72 234.1 276.72 242.1V287.71C276.72 295.74 270.26 301.06 262.28 299.66Z" stroke="#11FF9F" stroke-width="5" stroke-linecap="round" stroke-linejoin="round"/>
<path d="M368.36 318.36L322.75 310.36C314.75 308.95 308.31 301.36 308.31 293.36V247.72C308.31 239.72 314.78 234.42 322.75 235.83L368.36 243.83C376.36 245.24 382.8 252.83 382.8 260.83V306.44C382.8 314.44 376.34 319.77 368.36 318.36Z" stroke="#11FF9F" stroke-width="5" stroke-linecap="round" stroke-linejoin="round"/>
<path d="M156.2 389.21L110.59 381.21C102.59 379.8 96.15 372.21 96.15 364.21V318.57C96.15 310.57 102.62 305.27 110.59 306.68L156.2 314.68C164.2 316.09 170.64 323.68 170.64 331.68V377.29C170.64 385.29 164.18 390.62 156.2 389.21Z" stroke="#11FF9F" stroke-width="5" stroke-linecap="round" stroke-linejoin="round"/>
<path d="M368.36 426.62L322.75 418.62C314.75 417.21 308.31 409.62 308.31 401.62V356C308.31 348 314.78 342.7 322.75 344.11L368.36 352.11C376.36 353.52 382.8 361.11 382.8 369.11V414.72C382.8 422.7 376.34 428 368.36 426.62Z" stroke="#11FF9F" stroke-width="5" stroke-linecap="round" stroke-linejoin="round"/>
<path d="M141.46 86.08V112L115.15 107.36V81.44C115.15 74.2 121.07 69.32 128.3 70.6C131.942 71.3043 135.226 73.252 137.59 76.11C140.017 78.8721 141.388 82.4039 141.46 86.08V86.08Z" stroke="#11FF9F" stroke-width="5" stroke-linecap="round" stroke-linejoin="round"/>
<path d="M364.76 125.45V151.36L338.45 146.73V120.81C338.45 113.57 344.37 108.7 351.6 109.97C355.242 110.674 358.526 112.622 360.89 115.48C363.317 118.242 364.688 121.774 364.76 125.45V125.45Z" stroke="#11FF9F" stroke-width="5" stroke-linecap="round" stroke-linejoin="round"/>
<path d="M170.65 223.46V268.16C170.8 270.213 170.45 272.272 169.629 274.16C168.809 276.048 167.543 277.709 165.94 279C164.21 280.77 162.45 282.5 160.7 284.25L155.45 289.51C154.45 290.51 153.57 291.51 152.55 292.42C153.663 291.266 154.536 289.903 155.119 288.41C155.703 286.917 155.985 285.323 155.95 283.72V238.14C155.95 230.14 149.48 222.56 141.5 221.14L95.8899 213.08C94.0828 212.714 92.2171 212.754 90.4273 213.197C88.6375 213.64 86.9682 214.474 85.5399 215.64C85.7899 215.36 86.0599 215.1 86.3199 214.83C89.8399 211.33 93.3199 207.83 96.8299 204.34C98.3067 202.642 99.9858 201.13 101.83 199.84C103.779 198.709 105.997 198.129 108.25 198.16C111.13 198.16 114.13 199 116.96 199.5L132.7 202.28C140.553 203.66 148.397 205.047 156.23 206.44C160.303 207.215 163.97 209.408 166.58 212.63C169.137 215.667 170.574 219.49 170.65 223.46V223.46Z" stroke="#11FF9F" stroke-width="5" stroke-linecap="round" stroke-linejoin="round"/>
<path d="M141.5 295.65L95.89 287.65C87.89 286.24 81.45 278.65 81.45 270.65V225C81.45 217 87.92 211.7 95.89 213.11L141.5 221.11C149.5 222.52 155.94 230.11 155.94 238.11V283.73C155.94 291.73 149.48 297.06 141.5 295.65Z" stroke="#11FF9F" stroke-width="5" stroke-linecap="round" stroke-linejoin="round"/>
<path d="M276.73 350.42V395.12C276.8 397.088 276.488 399.051 275.81 400.9C274.908 402.846 273.61 404.583 272 406C270.28 407.78 268.5 409.5 266.75 411.24C265 412.98 263.26 414.76 261.51 416.51C260.51 417.51 259.6 418.51 258.58 419.45C259.7 418.293 260.58 416.926 261.168 415.428C261.757 413.93 262.043 412.33 262.01 410.72V365.11C262.01 357.11 255.54 349.53 247.56 348.11L201.95 340.11C200.15 339.738 198.29 339.772 196.504 340.209C194.719 340.647 193.054 341.477 191.63 342.64C191.88 342.37 192.13 342.11 192.4 341.84L202.89 331.35C204.364 329.649 206.044 328.138 207.89 326.85C209.839 325.722 212.058 325.145 214.31 325.18C217.19 325.18 220.19 326.03 223.01 326.51L238.77 329.29C246.603 330.69 254.443 332.077 262.29 333.45C266.357 334.234 270.018 336.425 272.63 339.64C275.185 342.661 276.632 346.464 276.73 350.42Z" stroke="#11FF9F" stroke-width="5" stroke-linecap="round" stroke-linejoin="round"/>
<path d="M247.58 422.62L202 414.57C194 413.17 187.56 405.57 187.56 397.57V352C187.56 344 194.03 338.7 202 340.1L247.61 348.15C255.61 349.55 262.05 357.15 262.05 365.15V410.76C262 418.7 255.56 424 247.58 422.62Z" stroke="#11FF9F" stroke-width="5" stroke-linecap="round" stroke-linejoin="round"/>
<path d="M341.48 112.68C341.57 112.68 341.66 112.75 341.75 112.68C340.674 113.728 339.826 114.986 339.258 116.376C338.691 117.767 338.415 119.259 338.45 120.76V146.69L141.47 112V86.07C141.401 82.3825 140.026 78.839 137.59 76.07C135.226 73.2147 131.947 71.2646 128.31 70.55C121.07 69.29 115.16 74.15 115.16 81.4V107.31L82.5899 101.57C74.3699 100.11 66.9199 102.32 61.6799 107.01C62.1699 106.51 62.6799 106.01 63.1499 105.54C65.4299 103.3 67.6999 101 69.9999 98.76C74.6666 94.0933 79.3333 89.4267 83.9999 84.76C88.0999 80.6 91.9999 75.92 97.5399 73.63C102.402 71.7477 107.705 71.3101 112.81 72.37L117.75 73.23C118.59 73.38 118.57 73.23 119.22 72.6C120.393 71.44 121.56 70.2733 122.72 69.1C127.26 64.55 131.87 60.05 136.37 55.45C138.68 53.1 141.03 50.78 143.37 48.45C145.49 46.37 147.53 43.69 150.2 42.28C155.67 39.38 162.37 41.78 166.4 46.03C169.324 49.1238 170.931 53.2333 170.88 57.49V81C170.88 81.24 170.71 82.38 170.88 82.57C171.05 82.76 171.68 82.71 171.88 82.74L174.66 83.23C183.393 84.77 192.117 86.3067 200.83 87.84L242 95.14L286.89 103.06L323.89 109.59L335.79 111.68L339.54 112.34C340.171 112.529 340.822 112.643 341.48 112.68V112.68Z" stroke="#11FF9F" stroke-width="5" stroke-linecap="round" stroke-linejoin="round"/>
<path d="M454 418.12C453.525 421.074 452.508 423.915 451 426.5C449.442 428.915 447.584 431.123 445.47 433.07C440.87 437.67 436.267 442.273 431.66 446.88C427.41 451.15 423.13 455.39 418.89 459.66C422.871 455.116 425.01 449.25 424.89 443.21V190.61C424.89 174.86 412.02 159.71 396.27 156.93L364.67 151.36V125.45C364.605 121.762 363.23 118.217 360.79 115.45C358.424 112.604 355.151 110.658 351.52 109.94C349.963 109.624 348.358 109.639 346.807 109.983C345.257 110.328 343.796 110.994 342.52 111.94C342.75 111.68 342.96 111.42 343.11 111.27C343.69 110.68 344.25 110.09 344.84 109.5L348.18 106.18C352.78 101.58 357.42 97 362.01 92.37C364.27 90.09 366.537 87.81 368.81 85.53C370.9 83.44 372.81 81.46 375.81 80.71C381.97 79.17 388.37 82.87 391.61 88C395.11 93.51 394.07 100.86 394.07 107.11V118C394.07 118.75 393.66 121.55 394.19 122C394.51 122.28 395.79 122.28 396.19 122.36L400 123.03L410.73 124.91C415.71 125.803 420.687 126.683 425.66 127.55C441.77 130.4 454.26 145.62 454.28 161.87V404.52C454.38 409 454.75 413.71 454 418.12Z" stroke="#11FF9F" stroke-width="5" stroke-linecap="round" stroke-linejoin="round"/>
</svg>
