<svg width="512" height="512" viewBox="0 0 512 512" fill="none" xmlns="http://www.w3.org/2000/svg">
<path d="M396 248.85C396 306.63 363.68 351.16 316.13 368.38C305.79 372.12 299.33 381.76 299.33 393.5V432.5C299.33 445.07 289.15 453.5 276.58 451.25L212.11 439.88C199.55 437.67 189.36 425.68 189.36 413.11V374.11C189.36 362.42 182.98 350.5 172.68 343.11C125.2 309.24 92.88 253.48 92.68 195.83C92.46 111.65 160 55.69 244.17 70.41C328 85.07 396 165 396 248.85Z" stroke="#11FF9F" stroke-width="5" stroke-linecap="round" stroke-linejoin="round"/>
<path d="M189.4 374.11L299.38 393.5" stroke="#11FF9F" stroke-width="5" stroke-linecap="round" stroke-linejoin="round"/>
<path d="M189.4 393.93L220.9 399.48" stroke="#11FF9F" stroke-width="5" stroke-linecap="round" stroke-linejoin="round"/>
<path d="M299.38 413.32L234 401.79" stroke="#11FF9F" stroke-width="5" stroke-linecap="round" stroke-linejoin="round"/>
<path d="M189.4 413.14L266.69 426.77" stroke="#11FF9F" stroke-width="5" stroke-linecap="round" stroke-linejoin="round"/>
<path d="M299.38 432.53L280.34 429.18" stroke="#11FF9F" stroke-width="5" stroke-linecap="round" stroke-linejoin="round"/>
<path d="M271.38 450.35C267.88 461.35 257.12 467.86 244.38 465.62C231.64 463.38 220.89 453.04 217.38 440.83L271.38 450.35Z" stroke="#11FF9F" stroke-width="5" stroke-linecap="round" stroke-linejoin="round"/>
<path d="M316.17 368.38C319.77 367.047 323.277 365.59 326.69 364.01C326.61 364.1 326.59 364.22 326.51 364.52C326.386 365.354 326.363 366.2 326.44 367.04V393.2C326.44 397.29 326.44 401.38 326.44 405.45C326.46 408.053 325.966 410.633 324.987 413.045C324.007 415.456 322.56 417.65 320.73 419.5C316.46 423.81 312.15 428.08 307.86 432.36C303.57 436.64 299.28 441 295 445.26L294.68 445.56C297.805 441.959 299.483 437.327 299.39 432.56V393.56C299.37 381.75 305.83 372.12 316.17 368.38Z" stroke="#11FF9F" stroke-width="5" stroke-linecap="round" stroke-linejoin="round"/>
<path d="M423.11 221.77C423.141 233.153 421.818 244.499 419.17 255.57C414.159 276.692 403.654 296.115 388.72 311.87C380.45 320.48 371.84 328.79 363.39 337.22L361.49 339.12C383.07 316.73 396 285.45 396 248.84C396 165 328 85.07 244.17 70.41C198.05 62.34 156.92 75.5 129.17 102.91C129.29 102.77 129.42 102.65 129.55 102.51C138.17 93.93 146.767 85.3367 155.34 76.73C170.429 61.7004 189.213 50.9146 209.8 45.46C232.13 39.46 255.8 39.77 278.27 44.73C298.342 49.2421 317.468 57.2363 334.78 68.35C352.2 79.4817 367.748 93.2992 380.85 109.29C393.943 125.145 404.393 143.008 411.8 162.19C419.166 181.196 422.999 201.387 423.11 221.77V221.77Z" stroke="#11FF9F" stroke-width="5" stroke-linecap="round" stroke-linejoin="round"/>
<path d="M320.46 234.21C320.12 229 316.51 225.3 311.35 224.21C309.04 223.75 306.7 223.47 304.35 222.82C302.589 222.329 300.981 221.399 299.678 220.117C298.375 218.835 297.419 217.243 296.9 215.49C296.14 213.572 296.083 211.446 296.74 209.49C296.94 209.3 297.13 209.1 297.31 208.89C297.326 208.886 297.344 208.886 297.36 208.89C297.693 208.614 297.998 208.306 298.27 207.97C298.286 207.974 298.304 207.974 298.32 207.97C298.651 207.685 298.959 207.374 299.24 207.04C299.24 207.04 299.24 207.04 299.24 207.04C299.569 206.753 299.876 206.442 300.16 206.11L300.22 206.06C300.551 205.779 300.859 205.471 301.14 205.14V205.14C301.469 204.853 301.776 204.542 302.06 204.21H302.11C302.441 203.929 302.749 203.621 303.03 203.29V203.29C306.89 200 306.96 194.23 303.12 189.55C300.18 185.983 297.18 182.463 294.12 178.99C290.12 174.51 284.12 173.58 280.12 176.73C278.79 177.79 277.5 178.91 276.18 179.95C273.31 182.21 269.98 182.3 266.28 180.22C264.568 179.288 263.131 177.923 262.113 176.261C261.095 174.599 260.532 172.698 260.48 170.75C260.42 168.37 260.55 165.99 260.29 163.58C259.999 161.038 258.909 158.654 257.177 156.77C255.444 154.887 253.159 153.602 250.65 153.1C246.65 152.327 242.677 151.623 238.73 150.99C235.41 150.46 232.6 151.44 230.85 153.55C230.48 153.844 230.144 154.18 229.85 154.55C229.483 154.848 229.148 155.183 228.85 155.55C228.488 155.853 228.153 156.188 227.85 156.55C227.483 156.848 227.148 157.183 226.85 157.55C226.488 157.853 226.154 158.188 225.85 158.55C225.48 158.844 225.144 159.18 224.85 159.55C224.486 159.851 224.151 160.186 223.85 160.55C223.483 160.848 223.148 161.183 222.85 161.55C222.481 161.845 222.145 162.181 221.85 162.55C221.48 162.844 221.144 163.18 220.85 163.55C220.483 163.848 220.148 164.183 219.85 164.55C219.491 164.857 219.157 165.191 218.85 165.55C218.502 165.83 218.183 166.145 217.9 166.49C218.871 165.753 219.987 165.232 221.175 164.961C222.364 164.69 223.596 164.676 224.79 164.92C228.79 165.587 232.767 166.293 236.72 167.04C239.228 167.539 241.512 168.822 243.243 170.704C244.974 172.586 246.062 174.969 246.35 177.51C246.61 179.92 246.49 182.3 246.54 184.69C246.595 186.639 247.161 188.539 248.18 190.201C249.2 191.863 250.638 193.228 252.35 194.16C256.04 196.23 259.35 196.16 262.24 193.9C263.57 192.85 264.86 191.72 266.18 190.67C270.18 187.51 276.18 188.45 280.18 192.93C283.267 196.39 286.267 199.91 289.18 203.49C293.03 208.17 292.96 213.93 289.1 217.22C287.72 218.4 286.26 219.5 284.86 220.66C282.22 222.88 281.59 225.97 282.86 229.66C283.377 231.411 284.331 233.002 285.633 234.283C286.935 235.563 288.541 236.491 290.3 236.98C292.6 237.63 294.94 237.91 297.3 238.37C302.45 239.42 306.07 243.11 306.41 248.37C306.75 253.257 306.75 258.163 306.41 263.05C306.344 264.617 305.819 266.129 304.9 267.4C305.232 267.127 305.534 266.818 305.8 266.48C306.443 265.833 307.09 265.19 307.74 264.55C308.373 263.89 309.02 263.243 309.68 262.61C310.05 262.315 310.385 261.98 310.68 261.61C311.045 261.31 311.38 260.975 311.68 260.61C312.048 260.313 312.383 259.978 312.68 259.61C313.052 259.318 313.388 258.982 313.68 258.61C314.057 258.323 314.393 257.987 314.68 257.61C315.05 257.315 315.385 256.98 315.68 256.61C316.052 256.318 316.388 255.982 316.68 255.61C317.055 255.321 317.391 254.985 317.68 254.61C318.459 253.947 319.089 253.127 319.529 252.203C319.968 251.279 320.207 250.273 320.23 249.25C320.664 244.249 320.741 239.222 320.46 234.21V234.21ZM299.18 269.33C298.715 269.326 298.25 269.289 297.79 269.22C295.79 268.97 293.79 268.53 291.79 268.22C287.79 267.57 285 269.11 283.42 272.4C281.84 275.69 282.69 279.47 285.52 282.79C286.94 284.44 288.4 286.05 289.76 287.74C293.03 291.81 293.34 297.01 290.58 300.26L290.76 300.1C291.038 299.844 291.298 299.57 291.54 299.28L291.73 299.14C292.01 298.889 292.267 298.615 292.5 298.32L292.69 298.16C292.973 297.91 293.237 297.639 293.48 297.35L293.67 297.2C293.945 296.948 294.202 296.677 294.44 296.39L294.63 296.23C294.908 295.981 295.168 295.714 295.41 295.43L295.59 295.26C295.875 295.015 296.136 294.744 296.37 294.45L296.56 294.29C296.846 294.046 297.11 293.779 297.35 293.49L297.52 293.33C297.801 293.078 298.065 292.807 298.31 292.52C298.367 292.463 298.431 292.412 298.5 292.37C298.775 292.118 299.032 291.847 299.27 291.56C299.338 291.508 299.401 291.452 299.46 291.39C299.742 291.143 300.003 290.872 300.24 290.58C300.308 290.536 300.372 290.486 300.43 290.43C300.713 290.183 300.974 289.912 301.21 289.62L301.4 289.46C301.677 289.211 301.938 288.944 302.18 288.66L302.36 288.5C302.64 288.247 302.901 287.973 303.14 287.68L303.33 287.52C306.9 284.38 306.85 278.63 303.33 274.2C302 272.54 300.57 271 299.18 269.33V269.33ZM252.71 297.62C249.01 298.46 246.97 301.4 246.97 305.74C246.97 307.66 246.97 309.58 246.89 311.49C246.83 313.309 246.189 315.062 245.06 316.49C245.406 316.208 245.724 315.893 246.01 315.55C246.377 315.253 246.713 314.917 247.01 314.55C247.657 313.913 248.3 313.273 248.94 312.63C249.299 312.323 249.633 311.989 249.94 311.63C250.303 311.327 250.637 310.993 250.94 310.63C251.302 310.327 251.637 309.992 251.94 309.63C252.305 309.33 252.64 308.995 252.94 308.63C253.312 308.338 253.648 308.002 253.94 307.63C254.307 307.332 254.642 306.997 254.94 306.63C255.305 306.33 255.64 305.995 255.94 305.63C256.91 304.66 256.91 304.66 257.88 303.69C259.316 302.463 260.261 300.758 260.54 298.89C261.298 299.419 262.002 300.022 262.64 300.69C259.57 298.05 256.37 296.78 252.71 297.62V297.62ZM260.92 258.41C255.695 260.494 249.98 261.025 244.46 259.94C227 256.76 212.9 240 213 222.39C212.994 218.65 213.718 214.944 215.13 211.48C205.79 215.31 199.52 224.31 199.47 235.94C199.37 253.48 213.47 270.29 230.94 273.47C244.59 276 256.29 269.56 260.92 258.41V258.41ZM209.87 185.86C213.36 184.94 215.36 182.59 215.47 178.67C215.421 176.171 215.497 173.671 215.7 171.18C215.713 171.066 215.734 170.952 215.76 170.84C214.989 170.29 214.275 169.664 213.63 168.97C212.16 167.37 210.8 165.67 209.38 164.03C205.5 159.56 199.54 158.33 195.55 161.31C192.39 163.683 189.313 166.15 186.32 168.71C186.002 168.988 185.707 169.293 185.44 169.62C185.407 169.635 185.379 169.659 185.36 169.69C185.037 169.956 184.742 170.254 184.48 170.58L184.38 170.65C184.067 170.926 183.773 171.224 183.5 171.54L183.42 171.62C183.102 171.895 182.808 172.196 182.54 172.52L182.45 172.58C182.137 172.86 181.843 173.16 181.57 173.48L181.49 173.56C181.172 173.831 180.878 174.129 180.61 174.45L180.52 174.52C180.201 174.794 179.904 175.091 179.63 175.41C179.63 175.41 179.63 175.47 179.55 175.48C179.229 175.756 178.935 176.06 178.67 176.39C178.67 176.39 178.67 176.39 178.59 176.45C178.272 176.725 177.977 177.026 177.71 177.35L177.61 177.42C177.297 177.696 177.003 177.994 176.73 178.31L176.65 178.39C176.334 178.664 176.04 178.961 175.77 179.28C175.77 179.28 175.71 179.28 175.68 179.35C175.367 179.626 175.073 179.924 174.8 180.24L174.72 180.33C174.402 180.601 174.108 180.899 173.84 181.22C173.84 181.22 173.78 181.22 173.76 181.29C173.436 181.561 173.135 181.859 172.86 182.18C175.86 179.65 178.86 177.18 182.01 174.84C186.01 171.84 192.01 173.1 195.85 177.56C197.27 179.2 198.62 180.91 200.1 182.5C203 185.6 206.32 186.81 209.87 185.86V185.86ZM170 203.35C169.633 203.648 169.298 203.983 169 204.35C168.635 204.65 168.3 204.985 168 205.35C167.633 205.648 167.298 205.983 167 206.35C166.628 206.642 166.292 206.978 166 207.35C165.633 207.648 165.298 207.983 165 208.35C164.635 208.65 164.3 208.985 164 209.35C163.631 209.645 163.295 209.981 163 210.35C162.636 210.651 162.301 210.986 162 211.35C161.635 211.65 161.3 211.985 161 212.35C160.638 212.653 160.303 212.988 160 213.35C159.347 213.987 158.703 214.633 158.07 215.29C157.734 215.559 157.426 215.86 157.15 216.19C158.057 215.507 159.091 215.011 160.191 214.733C161.292 214.455 162.438 214.399 163.56 214.57C165.67 214.81 167.8 215.25 169.92 215.57C174.05 216.26 177.06 214.88 178.63 211.36C180.2 207.84 179.37 204.36 176.52 200.97C175.324 200.846 174.115 200.996 172.986 201.409C171.856 201.821 170.835 202.485 170 203.35V203.35Z" stroke="#11FF9F" stroke-width="5" stroke-linecap="round" stroke-linejoin="round"/>
<path d="M231.26 318.12C229.26 317.77 227.26 317.46 225.26 317.06C222.546 316.524 220.095 315.084 218.304 312.976C216.513 310.867 215.49 308.215 215.4 305.45C215.34 303.45 215.4 301.45 215.4 299.45C215.34 295.45 213.4 292.31 209.79 290.07C206.18 287.83 202.53 287.93 199.73 290.2C198.41 291.27 197.12 292.37 195.73 293.42C191.66 296.6 185.64 295.58 181.6 290.96C178.64 287.587 175.73 284.177 172.87 280.73C168.87 275.98 168.93 270.18 172.87 266.83C174.17 265.73 175.52 264.69 176.82 263.6C179.65 261.22 180.47 257.73 178.9 253.94C178.245 252.09 177.11 250.447 175.611 249.18C174.112 247.913 172.303 247.068 170.37 246.73C168.05 246.3 165.72 245.94 163.37 245.33C160.867 244.659 158.648 243.196 157.045 241.159C155.443 239.122 154.543 236.621 154.48 234.03C154.48 230.12 154.43 226.21 154.48 222.31C154.56 216.93 158.38 213.6 163.77 214.2C165.88 214.44 168.01 214.88 170.13 215.2C174.27 215.89 177.26 214.51 178.84 210.99C180.42 207.47 179.55 203.86 176.61 200.44C175.33 198.96 174.067 197.47 172.82 195.97C168.97 191.36 168.82 185.47 172.69 182.19C175.69 179.63 178.77 177.19 181.93 174.79C185.93 171.79 191.87 173.04 195.76 177.51C197.18 179.15 198.53 180.85 200.01 182.44C202.89 185.54 206.23 186.75 209.77 185.81C213.31 184.87 215.27 182.53 215.37 178.61C215.44 176.11 215.3 173.54 215.61 171.12C216.25 166.19 220.19 163.48 225.26 164.3C229.26 164.94 233.26 165.63 237.18 166.4C239.688 166.903 241.973 168.189 243.705 170.072C245.437 171.955 246.527 174.338 246.82 176.88C247.07 179.29 246.96 181.67 247.01 184.06C247.066 186.01 247.632 187.911 248.652 189.574C249.671 191.237 251.108 192.605 252.82 193.54C256.52 195.6 259.82 195.54 262.71 193.27C264.05 192.22 265.32 191.1 266.65 190.04C270.65 186.88 276.65 187.81 280.65 192.3C283.73 195.76 286.73 199.28 289.65 202.86C293.5 207.53 293.43 213.31 289.57 216.59C288.19 217.77 286.72 218.86 285.33 220.03C282.69 222.25 282.06 225.33 283.33 229.03C283.85 230.783 284.807 232.375 286.113 233.656C287.418 234.936 289.027 235.863 290.79 236.35C293.08 237 295.42 237.28 297.73 237.75C302.89 238.75 306.51 242.48 306.85 247.69C307.19 252.577 307.19 257.483 306.85 262.37C306.47 267.46 302.85 269.86 297.73 269.17C295.73 268.91 293.73 268.49 291.73 268.17C287.73 267.52 284.96 269.07 283.37 272.35C281.78 275.63 282.64 279.42 285.47 282.74C286.88 284.39 288.35 286 289.71 287.69C293.26 292.11 293.32 297.87 289.71 301.01C286.71 303.677 283.617 306.22 280.43 308.64C276.43 311.64 270.52 310.43 266.59 305.97C265.35 304.56 264.15 303.11 262.92 301.68C259.92 298.23 256.54 296.68 252.57 297.57C248.89 298.41 246.84 301.34 246.83 305.69C246.83 307.61 246.83 309.54 246.76 311.44C246.46 316.76 242.48 319.91 237.09 319.11C235.24 318.87 233.25 318.47 231.26 318.12ZM199.45 235.93C199.36 253.48 213.45 270.3 230.93 273.48C248.57 276.69 262.93 265.08 263.06 247.55C263.19 230.02 249 213.16 231.52 210C213.87 206.75 199.54 218.35 199.45 235.93Z" stroke="#11FF9F" stroke-width="5" stroke-miterlimit="10"/>
</svg>
