<svg width="512" height="512" viewBox="0 0 512 512" fill="none" xmlns="http://www.w3.org/2000/svg">
<path d="M438.51 103.69V439.46L409.82 468.16V132.39L102.75 78.25L74.05 73.19L102.75 44.49L438.51 103.69Z" stroke="#11FF9F" stroke-width="5" stroke-linecap="round" stroke-linejoin="round"/>
<path d="M353.86 122.52L297.86 112.66L186 92.9199L130 83.0599L74 73.1899V409L130 418.87L186 428.73L297.92 448.47L353.92 458.33L409.92 468.2V132.39L353.86 122.52ZM115.66 209.33L130 195L186 204.86V260.86L171.65 275.21L130 267.82L115.65 265.29L115.66 209.33ZM283.54 406.82L241.93 399.49L227.58 397V341L241.93 326.65L297.93 336.51V392.51L283.54 406.82ZM353.86 234.44L339.51 248.79V192.79L297.89 185.46L283.54 183L297.89 168.65L353.89 178.51L353.86 234.44Z" stroke="#11FF9F" stroke-width="5" stroke-linecap="round" stroke-linejoin="round"/>
<path d="M409.82 412.2L353.86 402.33L297.89 392.47" stroke="#11FF9F" stroke-width="5" stroke-linecap="round" stroke-linejoin="round"/>
<path d="M74.05 353L130.01 362.87L185.97 372.73L227.58 380.07" stroke="#11FF9F" stroke-width="5" stroke-linecap="round" stroke-linejoin="round"/>
<path d="M74.05 297.04L409.82 356.24" stroke="#11FF9F" stroke-width="5" stroke-linecap="round" stroke-linejoin="round"/>
<path d="M409.82 300.28L353.86 290.41L297.89 280.55L241.93 270.68L185.97 260.8" stroke="#11FF9F" stroke-width="5" stroke-linecap="round" stroke-linejoin="round"/>
<path d="M115.66 248.41L74.05 241.07" stroke="#11FF9F" stroke-width="5" stroke-linecap="round" stroke-linejoin="round"/>
<path d="M409.82 244.32L353.86 234.44" stroke="#11FF9F" stroke-width="5" stroke-linecap="round" stroke-linejoin="round"/>
<path d="M130.01 194.98L74.05 185.11" stroke="#11FF9F" stroke-width="5" stroke-linecap="round" stroke-linejoin="round"/>
<path d="M185.97 204.84L241.93 214.71L283.54 222.05" stroke="#11FF9F" stroke-width="5" stroke-linecap="round" stroke-linejoin="round"/>
<path d="M409.82 188.35L353.86 178.48" stroke="#11FF9F" stroke-width="5" stroke-linecap="round" stroke-linejoin="round"/>
<path d="M297.89 168.62L241.93 158.75L185.97 148.88L130.01 139.02L74.05 129.15" stroke="#11FF9F" stroke-width="5" stroke-linecap="round" stroke-linejoin="round"/>
<path d="M353.86 234.44V290.41V346.37V402.33V458.29V458.31" stroke="#11FF9F" stroke-width="5" stroke-linecap="round" stroke-linejoin="round"/>
<path d="M353.86 178.48V122.52" stroke="#11FF9F" stroke-width="5" stroke-linecap="round" stroke-linejoin="round"/>
<path d="M297.89 448.43V392.47" stroke="#11FF9F" stroke-width="5" stroke-linecap="round" stroke-linejoin="round"/>
<path d="M297.89 336.51V280.55V241.46" stroke="#11FF9F" stroke-width="5" stroke-linecap="round" stroke-linejoin="round"/>
<path d="M297.89 112.65V112.66V168.62" stroke="#11FF9F" stroke-width="5" stroke-linecap="round" stroke-linejoin="round"/>
<path d="M241.93 438.56V399.49" stroke="#11FF9F" stroke-width="5" stroke-linecap="round" stroke-linejoin="round"/>
<path d="M241.93 326.65V326.64V270.68V214.71V158.75V102.79" stroke="#11FF9F" stroke-width="5" stroke-linecap="round" stroke-linejoin="round"/>
<path d="M185.97 428.7V428.69V372.73V316.76V260.8" stroke="#11FF9F" stroke-width="5" stroke-linecap="round" stroke-linejoin="round"/>
<path d="M185.97 204.84V148.88V92.92" stroke="#11FF9F" stroke-width="5" stroke-linecap="round" stroke-linejoin="round"/>
<path d="M130.01 418.83V362.87V306.91V267.82" stroke="#11FF9F" stroke-width="5" stroke-linecap="round" stroke-linejoin="round"/>
<path d="M130.01 194.98V139.02V83.06V83.05" stroke="#11FF9F" stroke-width="5" stroke-linecap="round" stroke-linejoin="round"/>
<path d="M339.51 192.83V248.79L297.89 241.46L283.54 238.94V182.97L297.89 185.5L339.51 192.83Z" stroke="#11FF9F" stroke-width="5" stroke-linecap="round" stroke-linejoin="round"/>
<path d="M353.86 178.48V234.44L339.51 248.79V192.83L297.89 185.5L283.54 182.97L297.89 168.62L353.86 178.48Z" stroke="#11FF9F" stroke-width="5" stroke-linecap="round" stroke-linejoin="round"/>
<path d="M185.97 204.84V260.8L171.62 275.15V219.19L130.01 211.86L115.66 209.33L130.01 194.98L185.97 204.84Z" stroke="#11FF9F" stroke-width="5" stroke-linecap="round" stroke-linejoin="round"/>
<path d="M297.89 336.51V392.47L283.54 406.82V350.86L241.93 343.53L227.58 341L241.93 326.65L297.89 336.51Z" stroke="#11FF9F" stroke-width="5" stroke-linecap="round" stroke-linejoin="round"/>
</svg>
