<svg width="154" height="154" viewBox="0 0 154 154" fill="none" xmlns="http://www.w3.org/2000/svg">
<path d="M141.62 77.21L132.87 92.35H120.06L112.87 104.88L119.24 115.97V115.98L109.31 133.18H91.34L91.38 133.11L84.19 120.58H69.81L62.62 133.11L62.66 133.18H44.69L34.76 115.98V115.97L41.13 104.88L33.94 92.35H21.13L12.38 77.21L20.89 62.48H33.94L41.13 49.95L34.65 38.66L44.69 21.25H62.83L69.81 33.42H84.19L91.17 21.25H109.31L119.36 38.66L112.87 49.95L120.06 62.48H133.11L141.62 77.21Z" stroke="#12FFA2" stroke-width="4" stroke-linecap="round" stroke-linejoin="round"/>
<path d="M41.13 49.95L33.94 62.48H19.57L12.38 49.95L19.57 37.42H33.94L34.65 38.66L41.13 49.95Z" stroke="#12FFA2" stroke-width="4" stroke-linecap="round" stroke-linejoin="round"/>
<path d="M91.38 20.89L91.17 21.25L84.19 33.42H69.81L62.83 21.25L62.62 20.89L69.81 8.35999H84.19L91.38 20.89Z" stroke="#12FFA2" stroke-width="4" stroke-linecap="round" stroke-linejoin="round"/>
<path d="M141.62 49.95L134.43 62.48H120.06L112.87 49.95L119.36 38.66L120.06 37.42H134.43L141.62 49.95Z" stroke="#12FFA2" stroke-width="4" stroke-linecap="round" stroke-linejoin="round"/>
<path d="M141.62 104.88L134.43 117.41H120.06L119.24 115.98V115.97L112.87 104.88L120.06 92.35H134.43L141.62 104.88Z" stroke="#12FFA2" stroke-width="4" stroke-linecap="round" stroke-linejoin="round"/>
<path d="M91.38 133.11L91.34 133.18L84.19 145.64H69.81L62.66 133.18L62.62 133.11L69.81 120.58H84.19L91.38 133.11Z" stroke="#12FFA2" stroke-width="4" stroke-linecap="round" stroke-linejoin="round"/>
<path d="M41.13 104.88L34.76 115.97V115.98L33.94 117.41H19.57L12.38 104.88L19.57 92.35H33.94L41.13 104.88Z" stroke="#12FFA2" stroke-width="4" stroke-linecap="round" stroke-linejoin="round"/>
<path d="M141.62 77.21L132.87 92.35H120.06L112.87 104.88L119.24 115.97V115.98L109.31 133.18H91.34L91.38 133.11L84.19 120.58H69.81L62.62 133.11L62.66 133.18H44.69L34.76 115.98V115.97L41.13 104.88L33.94 92.35H21.13L12.38 77.21L20.89 62.48H33.94L41.13 49.95L34.65 38.66L44.69 21.25H62.83L69.81 33.42H84.19L91.17 21.25H109.31L119.36 38.66L112.87 49.95L120.06 62.48H133.11L141.62 77.21Z" stroke="#12FFA2" stroke-width="4" stroke-linecap="round" stroke-linejoin="round"/>
<path d="M92.27 50.56H61.73L46.47 77L61.73 103.44H92.27L107.53 77L92.27 50.56Z" stroke="#12FFA2" stroke-width="4" stroke-linecap="round" stroke-linejoin="round"/>
</svg>
