<svg width="154" height="154" viewBox="0 0 154 154" fill="none" xmlns="http://www.w3.org/2000/svg">
<path d="M110.54 26.35L90.89 43.41H63.11L43.46 26.35L63.11 8.35999H90.89L110.54 26.35Z" stroke="#12FFA2" stroke-width="4" stroke-linecap="round" stroke-linejoin="round"/>
<path d="M110.54 26.35V51.79L106.59 55.4L90.89 69.77H63.11L47.41 55.4L43.46 51.79V26.35L63.11 43.41H90.89L110.54 26.35Z" stroke="#12FFA2" stroke-width="4" stroke-linecap="round" stroke-linejoin="round"/>
<path d="M120.98 72.35V116.98L95.22 145.64H58.78L33.02 116.98V72.35L47.41 55.4L63.11 69.77H90.89L106.59 55.4L120.98 72.35Z" stroke="#12FFA2" stroke-width="4" stroke-linecap="round" stroke-linejoin="round"/>
<path d="M106.48 133.11L132.4 116.62L145 79.1L132.4 43.58L110.53 30.37" stroke="#12FFA2" stroke-width="4" stroke-linecap="round" stroke-linejoin="round"/>
<path d="M43.47 30.37L21.61 43.58L9 79.1L21.61 116.62L47.52 133.11" stroke="#12FFA2" stroke-width="4" stroke-linecap="round" stroke-linejoin="round"/>
<path d="M78.79 85.13L91.46 106.73H66.12L78.79 85.13Z" stroke="#12FFA2" stroke-width="4" stroke-linecap="round" stroke-linejoin="round"/>
<path d="M78.79 126.82L91.46 106.73H66.12L78.79 126.82Z" stroke="#12FFA2" stroke-width="4" stroke-linecap="round" stroke-linejoin="round"/>
<path d="M43.47 38.34L63.11 55.41H90.89L110.53 38.34" stroke="#12FFA2" stroke-width="4" stroke-linecap="round" stroke-linejoin="round"/>
</svg>
