<svg width="154" height="154" viewBox="0 0 154 154" fill="none" xmlns="http://www.w3.org/2000/svg">
<path d="M134.93 19.52L131.5 35.51L123.4 73.36L119.98 89.33L83.7 103.24L77 105.81L70.3 103.24L34.02 89.33L30.6 73.36L22.5 35.51L19.07 19.52H49.56L49.9 21.83L53.94 49.04L55.64 60.52L77 72.37L98.36 60.52L100.06 49.04L104.1 21.83L104.44 19.52H134.93Z" stroke="#12FFA2" stroke-width="4" stroke-linecap="round" stroke-linejoin="round"/>
<path d="M83.7 103.24V119.52H70.3V103.24L77 105.81L83.7 103.24Z" stroke="#12FFA2" stroke-width="4" stroke-linecap="round" stroke-linejoin="round"/>
<path d="M111.33 119.52L121.33 143.67H32.67L42.67 119.52H111.33Z" stroke="#12FFA2" stroke-width="4" stroke-linecap="round" stroke-linejoin="round"/>
<path d="M30.6 73.36H20.61L9.8 35.51H22.5L30.6 73.36Z" stroke="#12FFA2" stroke-width="4" stroke-linecap="round" stroke-linejoin="round"/>
<path d="M133.39 73.36H123.4L131.5 35.51H144.2L133.39 73.36Z" stroke="#12FFA2" stroke-width="4" stroke-linecap="round" stroke-linejoin="round"/>
<path d="M105.8 10.33L104.44 19.52L104.1 21.83L100.06 49.04L98.36 60.52L77 72.37L55.64 60.52L53.94 49.04L49.9 21.83L49.56 19.52L48.2 10.33H105.8Z" stroke="#12FFA2" stroke-width="4" stroke-linecap="round" stroke-linejoin="round"/>
<path d="M38.46 129.69H115.19" stroke="#12FFA2" stroke-width="4" stroke-linecap="round" stroke-linejoin="round"/>
</svg>
