<svg width="512" height="512" viewBox="0 0 512 512" fill="none" xmlns="http://www.w3.org/2000/svg">
<path d="M284.1 244.2C281.899 251.855 277.948 258.894 272.56 264.76C267.05 270.76 261.02 276.25 255.35 282.07C252.2 285.32 249.11 288.63 245.72 291.63C254.729 283.082 260.342 271.563 261.52 259.2C262.87 246.07 259.72 232.71 253.64 221.07C247.716 209.797 239.22 200.078 228.84 192.7C218.43 185.3 206 180.39 193.2 179.59C180.73 178.8 167.96 182.18 158 189.85C156.75 190.85 155.62 191.92 154.39 192.91C158.39 188.91 162.39 184.91 166.39 180.91C170.39 176.91 174.16 172.85 178.25 169.05C185.472 162.267 194.501 157.717 204.25 155.95C210.469 154.888 216.819 154.851 223.05 155.84C222.089 151.137 220.751 146.519 219.05 142.03C217.281 137.619 215.109 133.381 212.56 129.37C207.767 121.802 201.748 115.083 194.75 109.49C180.63 98.24 162.15 91.3 144 94C139.042 94.7049 134.207 96.1053 129.64 98.16C127.235 99.2515 124.924 100.539 122.73 102.01C120.54 103.49 118.65 105.25 116.6 106.89C120.47 102.89 124.42 99.05 128.34 95.14C132.26 91.23 135.78 87.46 139.65 83.76C146.562 77.0121 155.22 72.3265 164.65 70.23C183.79 66.13 203.87 73.01 218.91 84.92C233.37 96.38 244.08 113.04 247.35 131.3C249.223 141.122 248.57 151.26 245.45 160.76C245.26 161.32 245.06 161.87 244.85 162.42C244.71 162.79 244.56 162.91 244.75 163.17C244.999 163.356 245.275 163.501 245.57 163.6C246.75 164.25 247.92 164.93 249.08 165.6C251.193 166.9 253.237 168.297 255.21 169.79C259.254 172.833 263 176.251 266.4 180C280.06 195.07 288.4 215.84 285.72 236.32C285.371 238.982 284.83 241.616 284.1 244.2V244.2Z" fill="#11FF9F" stroke="#11FF9F" stroke-width="5" stroke-linecap="round" stroke-linejoin="round"/>
<path d="M93.58 221.74C96.32 220.34 99.13 219.1 101.96 217.88C105.17 216.51 108.38 215.01 111.65 213.81C114.688 212.655 118.005 212.453 121.16 213.23C124.006 214.012 126.72 215.215 129.21 216.8C132.5 218.8 135.65 220.94 139.03 222.75C139.555 219.101 140.463 215.518 141.74 212.06C141.82 211.83 142.28 211.06 142.2 210.88C142.12 210.7 141.26 210.38 141.1 210.29C140.31 209.86 139.53 209.42 138.76 208.96C137.32 208.107 135.91 207.207 134.53 206.26C131.594 204.252 128.801 202.044 126.17 199.65C124.79 198.4 123.57 196.9 122.17 195.72C121.62 195.26 121.11 195.72 120.48 196.03C115.498 198.487 110.722 201.343 106.2 204.57C100.356 208.951 94.8934 213.818 89.87 219.12C83.93 225.11 78 231 72.06 237C78.4376 230.875 85.6902 225.732 93.58 221.74V221.74Z" fill="#11FF9F" stroke="#11FF9F" stroke-width="5" stroke-linecap="round" stroke-linejoin="round"/>
<path d="M109.88 323.07C116.78 316.39 123.44 309.32 130.29 302.53C136.978 295.693 144.564 289.795 152.84 285C154.12 284.27 155.43 283.57 156.73 282.88C157.1 282.68 159.28 281.23 159.73 281.51C147.38 268.51 139.03 251.19 138.48 233.11C138.413 230.775 138.48 228.438 138.68 226.11C138.74 225.49 138.8 224.87 138.88 224.26C138.88 223.93 139.22 223.06 139.07 222.79C138.92 222.52 137.8 222.11 137.53 221.96C136.99 221.67 136.45 221.36 135.92 221.04C131.98 218.69 128.28 215.84 123.97 214.16C121.842 213.286 119.57 212.815 117.27 212.77C114.952 212.842 112.672 213.372 110.56 214.33C106.05 216.18 101.56 218.03 97.09 220.1C80.85 227.69 66.54 239.72 57.87 255.58C53.3838 263.922 50.3409 272.963 48.87 282.32C48.12 286.9 47.28 291.82 47.79 296.48C48.292 300.615 50.3042 304.418 53.44 307.16C56.8484 310.131 60.6804 312.578 64.81 314.42C69.25 316.52 73.67 318.67 78.15 320.7C82.63 322.73 87.33 324.63 92.04 326.29C94.32 327.09 96.62 327.85 98.92 328.6C99.98 328.94 101.05 329.28 102.12 329.6L103.01 329.87C103.52 330.03 103.37 330.03 103.78 329.74C104.238 329.309 104.644 328.825 104.99 328.3C106.537 326.473 108.167 324.73 109.88 323.07Z" stroke="#11FF9F" stroke-width="5" stroke-linecap="round" stroke-linejoin="round"/>
<path d="M223 155.8C222.109 151.346 220.879 146.967 219.32 142.7C217.709 138.535 215.735 134.519 213.42 130.7C208.98 123.381 203.411 116.81 196.92 111.23C184.01 100.11 167.09 92.84 149.92 93.43C141.234 93.68 132.746 96.0855 125.22 100.43C117.949 104.737 111.906 110.838 107.67 118.15C98.8299 133.37 98.9199 152.15 104.91 168.33C110.97 184.468 122.063 198.227 136.55 207.57C138.4 208.76 140.31 209.86 142.25 210.88C144.973 204.013 149.184 197.835 154.58 192.79C154.08 193.19 154.99 192.35 154.97 192.36L155.78 191.55L157.13 190.2C158.13 189.2 159.13 188.2 160.13 187.2C162.13 185.2 164.153 183.177 166.2 181.13C170.2 177.13 173.98 173.07 178.06 169.24C185.205 162.455 194.144 157.86 203.82 156C210.156 154.849 216.641 154.781 223 155.8V155.8Z" stroke="#11FF9F" stroke-width="5" stroke-linecap="round" stroke-linejoin="round"/>
<path d="M304.65 126.42C326.29 121.05 349.33 129.96 365.19 144.78C381.73 160.24 392.35 183.09 389.47 205.99C388.075 217.842 382.539 228.821 373.84 236.99C377.27 233.99 380.4 230.59 383.6 227.3C386.95 223.86 390.38 220.49 393.78 217.1C397.098 213.984 400.236 210.682 403.18 207.21C405.979 203.689 408.293 199.807 410.06 195.67C416.83 179.88 415.06 161.58 408.15 146.16C401.64 131.721 390.99 119.54 377.55 111.16C363.3 102.3 345.69 97.88 329.14 101.94C321.099 103.912 313.665 107.826 307.49 113.34C304.01 116.46 300.84 119.89 297.55 123.2L287.35 133.39C285.73 135.01 284.1 136.63 282.51 138.27C288.753 132.489 296.377 128.409 304.65 126.42V126.42Z" fill="#11FF9F" stroke="#11FF9F" stroke-width="5" stroke-linecap="round" stroke-linejoin="round"/>
<path d="M468.62 349.27C467.37 351.86 465.01 353.79 462.99 355.76C460.63 358.073 458.297 360.39 455.99 362.71C451.49 367.18 447.24 371.94 442.53 376.19C445.34 373.19 445.48 369.34 445.27 365.49C445.06 361.64 444.69 358.08 444.16 354.39C443.027 346.675 441.014 339.116 438.16 331.86C432.42 317.15 423.54 303.8 412.98 292.12C407.551 286.169 401.739 280.581 395.58 275.39C392.51 272.8 389.35 270.31 386.17 267.86C383.413 265.609 380.439 263.639 377.29 261.98C374.019 260.357 370.388 259.593 366.74 259.76C362.63 259.95 358.74 261.45 354.82 262.35C347.055 264.083 339.038 264.367 331.17 263.19C323.684 262.065 316.412 259.812 309.6 256.51C306.082 254.831 302.663 252.951 299.36 250.88C296.328 248.749 293.084 246.936 289.68 245.47C287.898 244.779 286.025 244.351 284.12 244.2C285.432 239.526 286.138 234.704 286.22 229.85C286.22 229.27 286.22 228.7 286.22 228.12C286.22 227.54 286.48 227.4 287.06 227.12C287.283 226.985 287.532 226.9 287.79 226.87C288.14 226.92 288.84 227.92 289.12 228.22C290.8 229.91 292.56 231.53 294.39 233.06C301.254 238.874 309.119 243.391 317.6 246.39C334.67 252.3 354.35 251.23 369.36 240.62C369.99 240.029 370.697 239.525 371.46 239.12C372.273 238.984 373.096 238.914 373.92 238.91C376.259 238.601 378.576 238.15 380.86 237.56C385.52 236.36 389.98 234.9 394.86 235.56C399.33 236.13 403.31 238.25 406.97 240.78C410.85 243.47 414.52 246.47 418.14 249.49C432.05 261.09 444.62 274.32 454 290C463.628 305.935 469.048 324.055 469.75 342.66C469.908 344.922 469.52 347.189 468.62 349.27V349.27Z" fill="#11FF9F" stroke="#11FF9F" stroke-width="5" stroke-linecap="round" stroke-linejoin="round"/>
<path d="M444.29 373.48C442.88 376.58 439.95 378.48 436.93 379.85C433.507 381.31 429.916 382.342 426.24 382.92C417.77 384.34 408.98 383.64 400.45 383.15C391.65 382.64 382.86 381.94 374.08 381.23C365.45 380.53 356.83 379.71 348.3 378.23C346.15 377.85 344 377.42 341.85 377L340.34 376.71C340.01 376.64 339.07 376.63 338.82 376.41C338.57 376.19 338.54 375.24 338.47 374.95C338.34 374.4 338.2 373.85 338.06 373.31C337.023 369.345 335.75 365.444 334.25 361.63C331.415 354.503 327.895 347.667 323.74 341.22C315.09 327.7 304.01 315.92 291.74 305.59C288.46 302.82 285.14 300.07 281.74 297.49C278.712 295.052 275.368 293.034 271.8 291.49C267.929 290.033 263.728 289.687 259.67 290.49C255.55 291.24 251.61 292.7 247.46 293.38C246.53 293.53 245.58 293.7 244.63 293.77C244.25 293.77 243.41 293.64 243.1 293.93C244.18 293.08 245.21 292.18 246.21 291.24L245.73 291.7C249.45 288.4 252.81 284.7 256.28 281.2C259.92 277.5 263.61 273.85 267.28 270.2C270.852 266.841 274.106 263.158 277 259.2C279.815 255.143 282.021 250.696 283.55 246C283.66 245.64 283.84 244.36 284.1 244.19C284.36 244.02 285.45 244.33 285.76 244.38C286.986 244.596 288.188 244.931 289.35 245.38C291.434 246.203 293.442 247.207 295.35 248.38C299.56 250.91 303.58 253.64 308.03 255.78C316.396 259.969 325.44 262.637 334.74 263.66C339.46 264.1 344.215 264.03 348.92 263.45C351.337 263.129 353.734 262.672 356.1 262.08C358.54 261.48 360.92 260.64 363.39 260.18C367.987 259.266 372.755 259.844 377 261.83C381.08 263.76 384.64 266.67 388.19 269.42C403.85 281.53 418.1 295.73 428.54 312.65C438.54 328.83 444.68 347.34 445.32 366.41C445.514 368.814 445.162 371.231 444.29 373.48V373.48Z" stroke="#11FF9F" stroke-width="5" stroke-linecap="round" stroke-linejoin="round"/>
<path d="M389.94 198.48C390.093 210.95 385.844 223.074 377.94 232.72C369.87 242.32 358.09 248.1 345.74 249.62C332.74 251.23 319.33 248.24 307.81 242.15C302.016 239.077 296.639 235.277 291.81 230.84C290.617 229.74 289.457 228.603 288.33 227.43C287.78 226.86 287.24 226.28 286.7 225.69C286.34 225.3 286.15 225.16 286.07 224.69C285.99 224.22 286.01 223.83 285.97 223.4C285.685 220.085 285.154 216.796 284.38 213.56C282.88 207.307 280.556 201.281 277.47 195.64C275.966 192.875 274.296 190.204 272.47 187.64C271.563 186.36 270.62 185.107 269.64 183.88C269.17 183.29 268.69 182.71 268.2 182.13C267.595 181.583 267.058 180.965 266.6 180.29C266.446 179.479 266.412 178.65 266.5 177.83C266.5 176.94 266.5 176.05 266.5 175.17C266.5 173.53 266.64 171.88 266.82 170.25C267.191 166.86 267.877 163.512 268.87 160.25C270.589 154.641 273.269 149.373 276.79 144.68C284.395 134.729 295.458 127.996 307.79 125.81C319.84 123.57 332.46 125.7 343.61 130.6C355.214 135.77 365.401 143.659 373.31 153.6C381.633 163.836 387.113 176.083 389.2 189.11C389.674 192.211 389.921 195.343 389.94 198.48V198.48Z" stroke="#11FF9F" stroke-width="5" stroke-linecap="round" stroke-linejoin="round"/>
<path d="M309.57 322.68C304.079 316.62 298.182 310.94 291.92 305.68C288.69 302.95 285.43 300.25 282.05 297.68C279.101 295.293 275.87 293.278 272.43 291.68C268.641 290.098 264.485 289.603 260.43 290.25C256.43 290.87 252.58 292.36 248.58 293.08C247.58 293.25 246.58 293.41 245.64 293.54C244.98 293.63 244.2 293.54 243.55 293.7C242.923 293.937 242.353 294.305 241.88 294.78C241.07 295.37 240.25 295.93 239.41 296.47C236.353 298.424 233.094 300.043 229.69 301.3C214.69 306.91 197.59 305.08 183.24 298.47C176.156 295.183 169.622 290.822 163.87 285.54C163.18 284.91 162.5 284.27 161.87 283.61C161.51 283.26 161.16 282.91 160.81 282.55C160.46 282.19 160.02 281.55 159.74 281.46C159.18 281.39 158.18 282.12 157.74 282.36C155.43 283.54 153.14 284.8 150.91 286.12C144.005 290.312 137.62 295.306 131.89 301C125.89 306.81 120.14 312.82 114.25 318.71L109.87 323.12C116.444 316.795 123.948 311.514 132.12 307.46C136.49 305.27 141.04 303.46 145.54 301.55C147.778 300.471 150.125 299.633 152.54 299.05C154.921 298.657 157.36 298.814 159.67 299.51C164.03 300.73 167.84 303.39 171.67 305.79C175.683 308.317 179.89 310.524 184.25 312.39C192.806 316.204 202.026 318.304 211.39 318.57C216.229 318.663 221.064 318.207 225.8 317.21C230.71 316.21 235.41 314.21 240.5 314.4C244.911 314.685 249.159 316.176 252.78 318.71C256.456 321.186 259.998 323.857 263.39 326.71C278.63 339.04 292.39 353.34 302.26 370.4C307.196 378.793 311.002 387.801 313.58 397.19C314.764 401.718 315.676 406.313 316.31 410.95C316.64 413.27 316.85 415.62 317.01 417.95C317.276 420.23 317.323 422.531 317.15 424.82C316.903 427.062 315.943 429.166 314.41 430.82C317.62 427.94 320.52 424.74 323.53 421.67C326.54 418.6 329.72 415.5 332.84 412.44C334.35 410.94 335.9 409.44 337.4 407.97C338.762 406.719 339.881 405.228 340.7 403.57C342.36 399.76 341.59 395.01 341.22 391C339.612 374.347 334.243 358.276 325.52 344C320.889 336.405 315.549 329.267 309.57 322.68Z" fill="#11FF9F" stroke="#11FF9F" stroke-width="5" stroke-linecap="round" stroke-linejoin="round"/>
<path d="M315.86 428.76C318.03 424.68 317.18 419.25 316.72 414.84C316.243 410.039 315.465 405.273 314.39 400.57C312.134 391.191 308.661 382.148 304.06 373.67C294.71 356.28 281.21 341.35 266.06 328.85C262.39 325.85 258.69 322.85 254.83 320.07C251.29 317.54 247.42 315.29 243.06 314.61C240.607 314.243 238.112 314.277 235.67 314.71C233.19 315.13 230.8 315.97 228.37 316.58C223.709 317.774 218.93 318.445 214.12 318.58C204.728 318.639 195.414 316.88 186.69 313.4C182.294 311.711 178.049 309.654 174 307.25C169.88 304.82 166.05 301.87 161.56 300.11C159.316 299.199 156.911 298.75 154.49 298.79C152.038 298.995 149.645 299.649 147.43 300.72C142.8 302.72 138.13 304.55 133.59 306.72C125.161 310.705 117.402 315.974 110.59 322.34C103.392 329.096 97.5443 337.159 93.3599 346.1C89.2974 355.183 86.7373 364.866 85.7799 374.77C85.2599 379.45 85.0899 384.28 87.4499 388.53C89.5599 392.32 93.1599 394.95 96.6999 397.33C98.8031 398.647 101.007 399.798 103.29 400.77L110.29 404.11C114.94 406.31 119.62 408.46 124.41 410.32C143.57 417.76 163.81 422.65 183.99 426.39C189.05 427.33 194.12 428.18 199.21 428.97C204.3 429.76 209.6 430.8 214.78 431.8C225.029 433.719 235.379 435.054 245.78 435.8C256.27 436.65 266.78 437.52 277.29 438C287.2 438.45 297.13 438.71 306.62 435.32C310.14 434.09 314 432.19 315.86 428.76Z" stroke="#11FF9F" stroke-width="5" stroke-linecap="round" stroke-linejoin="round"/>
</svg>
