<svg width="512" height="512" viewBox="0 0 512 512" fill="none" xmlns="http://www.w3.org/2000/svg">
<path d="M188.41 147C188.98 147 189.55 147 190.12 147C187.53 151.81 184.96 156.63 182.37 161.44C180.747 164.707 178.313 167.503 175.3 169.56C172.249 171.44 168.753 172.476 165.17 172.56C159.95 172.77 154.62 172.27 149.4 172.09C127.46 171.35 105.517 170.657 83.5701 170.01L65.2701 169.47C60.1501 169.31 54.6701 168.71 50.4601 172.25C53.4601 169 56.7101 165.96 59.8401 162.85C62.9701 159.74 66.0201 156.66 69.1101 153.58L73.6701 149C74.9645 147.526 76.4872 146.27 78.1801 145.28C82.1801 143.21 86.7401 143.79 91.0601 143.92C111.82 144.54 132.577 145.177 153.33 145.83C165.023 146.177 176.717 146.567 188.41 147Z" fill="#11FF9F" stroke="#11FF9F" stroke-width="5" stroke-linejoin="round"/>
<path d="M397 424.33C397.62 428.08 397.5 432.13 395.52 435.48C394.512 436.989 393.316 438.364 391.96 439.57L387.24 444.28C381.04 450.49 374.95 456.84 368.6 462.91C371.6 459.58 372.17 455.03 371.6 450.73C370.83 444.98 369.69 439.24 368.74 433.51C366.8 421.85 364.863 410.183 362.93 398.51C360.997 386.837 359.063 375.17 357.13 363.51C356.17 357.717 355.207 351.93 354.24 346.15C353.48 341.57 352.91 337.04 354.5 332.56C356.24 327.67 360.03 324.72 363.95 321.56L379.42 309.22C378.818 312.65 378.882 316.164 379.61 319.57C380.223 323.263 380.837 326.953 381.45 330.64C382.703 338.187 383.957 345.737 385.21 353.29C387.717 368.383 390.223 383.48 392.73 398.58C394.117 407.193 395.54 415.777 397 424.33Z" fill="#11FF9F" stroke="#11FF9F" stroke-width="5" stroke-linejoin="round"/>
<path d="M462 238.11C458.09 242.37 453.79 246.33 449.7 250.42C445.61 254.51 441.64 258.81 437.38 262.72C443.38 256.12 440.95 245.53 435.32 239.46C432.48 236.39 428.87 234.66 424.95 233.39L408.48 228.08C386.687 221.053 364.89 214.053 343.09 207.08L326.62 201.83C322.43 200.49 318.35 199.13 314.7 196.6C306.7 191.08 303.7 182.02 299.83 173.54C290.443 152.773 281.03 132.02 271.59 111.28L264.45 95.56C262.17 90.56 260.15 85.31 257.5 80.5C253.57 73.38 245.09 68.42 236.87 70.18C234.736 70.6153 232.747 71.5856 231.09 73C232.91 70.92 235.04 69.06 236.98 67.11C238.92 65.16 240.82 63.25 242.76 61.33C246.673 57.4367 250.577 53.54 254.47 49.64C256.004 47.8558 257.886 46.4029 260 45.37C262.444 44.4298 265.077 44.087 267.68 44.37C272.157 44.9047 276.318 46.9466 279.48 50.16C283.31 54 285.13 59.37 287.34 64.21C290.047 70.1367 292.747 76.07 295.44 82.01C300.773 93.71 306.08 105.417 311.36 117.13C316.64 128.843 321.997 140.657 327.43 152.57C329.6 157.39 331.53 162.33 335.03 166.37C337.998 169.738 341.7 172.38 345.85 174.09C351.45 176.45 357.5 177.96 363.29 179.81C369.51 181.81 375.727 183.81 381.94 185.81C394.213 189.737 406.483 193.68 418.75 197.64L437.4 203.64L446.6 206.64C449.37 207.408 452.086 208.36 454.73 209.49C462.73 213.35 468.79 223.7 465.73 232.59C464.954 234.706 463.673 236.6 462 238.11V238.11Z" fill="#11FF9F" stroke="#11FF9F" stroke-width="5" stroke-linejoin="round"/>
<path d="M435.66 264.34C428.19 270.45 420.6 276.43 413.05 282.45C395.557 296.403 378.063 310.353 360.57 324.3C354.72 328.95 352.38 335.35 353.77 343.68C359.663 379.08 365.547 414.477 371.42 449.87C372.65 457.27 370.54 462.8 364.56 465.95C358.77 469 352.61 467.95 346.4 463.55C316.31 442.43 286.16 421.42 256.19 400.12C247.3 393.79 239.14 392.33 230.24 395.52C200.35 406.23 170.24 416.57 140.24 427.07C133.43 429.46 126.88 428.13 120.78 422.2C115.84 417.4 113.78 411.71 114.78 405.71C119.98 375.71 125.33 345.77 130.63 315.81C131.31 311.95 132 308.1 132.63 304.23C133.85 296.98 131.89 290.05 126.52 283.84C103.08 256.72 79.5734 229.65 56 202.63C53.86 200.17 51.68 197.73 49.72 195.14C45.25 189.25 44.38 183.24 46.79 177.4C49.2 171.56 53.79 169.06 60.19 169.25C94.42 170.25 128.64 171.3 162.89 172.5C172.07 172.83 178.22 169.21 182.27 161.65C197.34 133.45 212.61 105.39 227.79 77.25C228.857 75.066 230.505 73.2182 232.553 71.9093C234.601 70.6004 236.97 69.8809 239.4 69.83C240.582 69.8127 241.764 69.8628 242.94 69.98C250.14 71.54 255.29 75.48 258.34 82.15C266.8 100.62 275.15 119.15 283.55 137.62C290.55 153.12 297.64 168.62 304.61 184.12C308.49 192.74 314.77 198.03 323.48 200.8C357.72 211.7 391.95 222.7 426.17 233.8C429.365 234.738 432.28 236.449 434.657 238.781C437.034 241.112 438.8 243.994 439.8 247.17C442.18 254.34 440.75 260.18 435.66 264.34Z" stroke="#11FF9F" stroke-width="5" stroke-linejoin="round"/>
<path d="M318.76 263.36C316.76 265.41 314.6 267.36 312.53 269.3C310.46 271.24 308.47 273.23 306.38 275.13C311.16 269.96 310.68 262.24 307.28 256.52C305.58 253.65 303.236 251.215 300.433 249.407C297.63 247.599 294.445 246.466 291.13 246.1C287.587 245.768 284.032 246.596 281 248.46L275.91 251.46L255.5 263.67L232.5 277.46L224.12 282.46L221.4 284.09C221.06 284.29 220.33 284.94 219.92 284.98C219.92 284.98 219.79 285.06 219.74 285.08L208.74 266.08L202 254.5C200.18 251.35 198.42 248.29 195.54 245.84C189.44 240.67 179.47 238.55 172.81 244.06C176.29 240.4 180.2 237.06 183.81 233.55C185.537 231.681 187.617 230.172 189.93 229.11C191.763 228.397 193.713 228.03 195.68 228.03C203.31 228.03 210.15 232.71 213.75 238.89C218.43 246.89 223.02 254.98 227.66 263.03L233.06 272.39L243.64 266.05L266.28 252.5L287.75 239.65C291.94 237.15 296.35 233.73 301.43 233.31C315.02 232.18 328.16 247.46 321.64 259.66C320.909 261.055 319.933 262.308 318.76 263.36V263.36Z" fill="#11FF9F" stroke="#11FF9F" stroke-width="5" stroke-linejoin="round"/>
<path d="M215.12 325.66C214.101 325.486 213.098 325.232 212.12 324.9C207.124 323.203 202.908 319.758 200.25 315.2L170.56 263.66C165.56 255.01 168.21 245.29 176.43 241.94C184.65 238.59 195.35 242.87 200.32 251.51L219.7 285.16L281.62 248.11C289.1 243.63 300.05 246.58 306.08 254.7C312.11 262.82 310.94 273.03 303.46 277.51L226 323.82C222.706 325.704 218.85 326.356 215.12 325.66Z" stroke="#11FF9F" stroke-width="5" stroke-miterlimit="10"/>
</svg>
