<svg width="512" height="512" viewBox="0 0 512 512" fill="none" xmlns="http://www.w3.org/2000/svg">
<path d="M363.86 405.12C435.31 316.21 426 165.69 426 165.69C334.11 134.76 242.2 71.44 242.2 71.44C242.2 71.44 167.66 96.53 85.7 100.44C76.7 100.86 67.54 101.04 58.4 100.89L86 73.27C177.9 74.76 269.8 43.84 269.8 43.84C269.8 43.84 361.71 107.16 453.61 138.09C453.61 138.09 465.13 324.76 363.86 405.12Z" fill="#11FF9F" stroke="#11FF9F" stroke-width="5" stroke-linejoin="round"/>
<path d="M426 165.69C334.11 134.77 242.2 71.4301 242.2 71.4301C242.2 71.4301 150.3 102.36 58.39 100.87C58.39 100.87 40.68 381.58 242.2 468.16C443.73 452.65 426 165.69 426 165.69Z" stroke="#11FF9F" stroke-width="5" stroke-linejoin="round"/>
<path d="M153.94 221.19C153.827 221.311 153.73 221.445 153.65 221.59C153.65 221.51 153.75 221.44 153.8 221.36C153.84 221.298 153.887 221.241 153.94 221.19Z" stroke="#11FF9F" stroke-width="5" stroke-linejoin="round"/>
<path d="M154.38 229.74C155.11 230.74 155.93 231.64 156.73 232.55C155.54 231.343 154.496 230.001 153.62 228.55C153.85 228.961 154.104 229.359 154.38 229.74V229.74Z" stroke="#11FF9F" stroke-width="5" stroke-linejoin="round"/>
<path d="M184.67 323.41C184.45 323.25 184.22 323.07 184 322.89C184.22 323.07 184.44 323.25 184.67 323.41Z" stroke="#11FF9F" stroke-width="5" stroke-linejoin="round"/>
<path d="M183.38 322.33C183.59 322.53 183.8 322.71 184 322.89C183.79 322.71 183.58 322.53 183.38 322.33Z" stroke="#11FF9F" stroke-width="5" stroke-linejoin="round"/>
<path d="M182.79 321.71C182.98 321.93 183.18 322.13 183.38 322.33C183.173 322.134 182.976 321.927 182.79 321.71V321.71Z" stroke="#11FF9F" stroke-width="5" stroke-linejoin="round"/>
<path d="M186.48 266.89C186.836 267.372 187.144 267.888 187.4 268.43C187.134 267.893 186.827 267.378 186.48 266.89V266.89Z" stroke="#11FF9F" stroke-width="5" stroke-linejoin="round"/>
<path d="M187.76 269.27C187.875 269.577 187.968 269.891 188.04 270.21C187.967 269.891 187.873 269.577 187.76 269.27V269.27Z" stroke="#11FF9F" stroke-width="5" stroke-linejoin="round"/>
<path d="M188 270.21C188.345 271.515 188.406 272.879 188.18 274.21C188.08 274.74 188 275.26 187.9 275.79C188.327 273.958 188.361 272.056 188 270.21V270.21Z" stroke="#11FF9F" stroke-width="5" stroke-linejoin="round"/>
<path d="M213.71 206.22C211.937 209.507 210.173 212.79 208.42 216.07C207.729 217.537 206.597 218.752 205.183 219.546C203.769 220.34 202.142 220.674 200.53 220.5C186.53 220.02 172.6 219.61 158.64 219.18C157.793 219.101 156.94 219.226 156.15 219.542C155.361 219.858 154.658 220.358 154.1 221C155.422 219.501 156.838 218.088 158.34 216.77C161.5 213.61 164.69 210.46 167.85 207.29C168.511 206.609 169.318 206.088 170.21 205.764C171.102 205.44 172.056 205.322 173 205.42C175.65 205.49 178.28 205.59 180.93 205.67C191.497 205.99 202.073 206.323 212.66 206.67C213.36 206.68 213.29 206.77 213.71 206.22Z" fill="#11FF9F" stroke="#11FF9F" stroke-width="5" stroke-linejoin="round"/>
<path d="M220.33 314.16L223.97 312.87L222.83 313.28C222 313.57 221.17 313.88 220.33 314.16Z" stroke="#11FF9F" stroke-width="5" stroke-linejoin="round"/>
<path d="M224.8 185.69C225.495 184.175 226.297 182.711 227.2 181.31C227.12 181.42 227.05 181.55 226.98 181.67C226.26 183.01 225.533 184.35 224.8 185.69Z" stroke="#11FF9F" stroke-width="5" stroke-linejoin="round"/>
<path d="M234.43 311.21C232.076 310.67 229.615 310.83 227.35 311.67C227.56 311.58 227.78 311.5 227.99 311.43C230.052 310.641 232.319 310.564 234.43 311.21Z" stroke="#11FF9F" stroke-width="5" stroke-linejoin="round"/>
<path d="M241.31 315.24C243.31 316.68 245.327 318.11 247.36 319.53C245.69 318.37 244.04 317.19 242.36 316.01C242 315.77 241.67 315.5 241.31 315.24Z" stroke="#11FF9F" stroke-width="5" stroke-linejoin="round"/>
<path d="M298.77 316.28C299.11 318.42 299.85 320.79 299.31 322.96C298.84 324.83 297.25 326.02 295.95 327.33C292.78 330.52 289.58 333.66 286.4 336.85C285.71 337.54 285.04 338.3 284.29 338.99C285.54 337.68 285.92 335.84 285.55 333.6C283.15 319.16 280.753 304.727 278.36 290.3C278.013 288.857 278.089 287.345 278.579 285.944C279.068 284.543 279.95 283.313 281.12 282.4L292.06 273.69C291.65 274.45 292.12 276.26 292.24 277.04C292.67 279.66 293.11 282.27 293.55 284.9C295.29 295.36 297.03 305.82 298.77 316.28Z" fill="#11FF9F" stroke="#11FF9F" stroke-width="5" stroke-linejoin="round"/>
<path d="M307.35 261.49C308.51 260.57 309.66 259.64 310.8 258.72C309.69 259.67 308.51 260.57 307.35 261.49Z" stroke="#11FF9F" stroke-width="5" stroke-linejoin="round"/>
<path d="M326.91 242.6C325.923 243.912 324.789 245.107 323.53 246.16C321.17 248.52 318.85 250.93 316.45 253.25C315.19 254.47 313.96 255.72 312.74 256.96C313.99 255.38 314.23 253.33 313.43 250.96C313.02 249.667 312.301 248.495 311.333 247.545C310.365 246.595 309.18 245.896 307.88 245.51C293.88 240.99 279.917 236.503 265.99 232.05C264.283 231.562 262.708 230.698 261.379 229.521C260.05 228.344 259.001 226.885 258.31 225.25C255.47 218.93 252.58 212.61 249.71 206.25C246.303 198.75 242.88 191.223 239.44 183.67C238.888 182.383 238.025 181.252 236.929 180.38C235.833 179.507 234.538 178.92 233.16 178.67C232.78 178.67 232.24 178.59 231.72 178.67C230.477 178.696 229.28 179.148 228.33 179.95C231.33 176.78 234.53 173.78 237.61 170.71C240.51 167.82 243.25 163.71 247.93 165.19C252.33 166.58 253.62 170.72 255.37 174.56C257.537 179.3 259.693 184.05 261.84 188.81C264.06 193.71 266.283 198.6 268.51 203.48L271.65 210.48C272.399 212.366 273.517 214.083 274.94 215.53C278.15 218.53 283.08 219.33 287.12 220.63L302.3 225.48C307.37 227.11 312.43 228.76 317.48 230.38C321.57 231.69 325.72 232.66 327.23 237.19C327.572 238.061 327.72 238.996 327.665 239.93C327.609 240.864 327.352 241.775 326.91 242.6V242.6Z" fill="#11FF9F" stroke="#11FF9F" stroke-width="5" stroke-linejoin="round"/>
<path d="M312.74 257C312.127 257.6 311.487 258.18 310.82 258.74C309.68 259.66 308.53 260.59 307.37 261.51C305.76 262.79 304.16 264.08 302.54 265.36L294.75 271.57L293.55 272.52C293.2 272.81 292.3 273.28 292.08 273.7L281.14 282.41C279.97 283.323 279.088 284.553 278.599 285.954C278.109 287.355 278.033 288.867 278.38 290.31C280.78 304.75 283.177 319.183 285.57 333.61C285.94 335.85 285.57 337.69 284.31 339C283.759 339.532 283.128 339.974 282.44 340.31C282.346 340.363 282.25 340.41 282.15 340.45C281.706 340.628 281.243 340.752 280.77 340.82H280.41C278.651 340.836 276.933 340.286 275.51 339.25L275.37 339.16L261.9 329.71C257.56 326.677 253.227 323.633 248.9 320.58L247.39 319.51C245.39 318.09 243.373 316.66 241.34 315.22C239.924 314.119 238.434 313.117 236.88 312.22H236.82C236.58 312.08 236.3 311.95 236.04 311.82H235.95C235.742 311.72 235.529 311.633 235.31 311.56C235.202 311.507 235.088 311.467 234.97 311.44C234.805 311.368 234.635 311.312 234.46 311.27C232.349 310.624 230.082 310.701 228.02 311.49C227.81 311.56 227.59 311.64 227.38 311.73L227.16 311.8C226.31 312.07 225.44 312.39 224.57 312.72L224 312.93L220.36 314.22C213.75 316.56 207.14 318.86 200.52 321.17L192.88 323.82C191.408 324.47 189.819 324.81 188.21 324.82L187.78 324.77C187.475 324.727 187.174 324.66 186.88 324.57C186.67 324.5 186.45 324.44 186.25 324.35C185.944 324.227 185.647 324.083 185.36 323.92C185.14 323.8 184.92 323.66 184.7 323.51C184.243 323.176 183.809 322.812 183.4 322.42C183.197 322.227 183.003 322.023 182.82 321.81C182.521 321.463 182.247 321.095 182 320.71C181.895 320.561 181.801 320.403 181.72 320.24C180.886 318.587 180.666 316.69 181.1 314.89C181.553 312.277 182.01 309.667 182.47 307.06C183.38 301.86 184.3 296.64 185.23 291.44C185.68 288.85 186.15 286.25 186.61 283.67C186.87 282.12 187.14 280.59 187.42 279.05C187.6 278 187.79 276.95 187.97 275.89C188.07 275.36 188.15 274.84 188.25 274.31C188.545 272.652 188.386 270.945 187.79 269.37C187.696 269.092 187.583 268.821 187.45 268.56V268.56C187.194 268.018 186.886 267.502 186.53 267.02C186.368 266.765 186.184 266.524 185.98 266.3L185.77 266.04C185.758 266.013 185.737 265.992 185.71 265.98C185.25 265.37 184.71 264.81 184.21 264.23C175.143 253.777 166.067 243.34 156.98 232.92L156.78 232.68C155.98 231.77 155.16 230.85 154.43 229.87C154.155 229.498 153.901 229.111 153.67 228.71C153.59 228.57 153.52 228.43 153.45 228.28C153.383 228.165 153.326 228.045 153.28 227.92C153.067 227.466 152.916 226.985 152.83 226.49C152.705 225.735 152.705 224.965 152.83 224.21C152.824 224.093 152.824 223.977 152.83 223.86C152.83 223.67 152.93 223.48 152.98 223.28C153.043 223.061 153.124 222.847 153.22 222.64C153.318 222.383 153.438 222.136 153.58 221.9C153.611 221.837 153.648 221.776 153.69 221.72C153.77 221.575 153.867 221.441 153.98 221.32C154.024 221.24 154.078 221.167 154.14 221.1C154.701 220.464 155.405 219.97 156.194 219.658C156.984 219.347 157.836 219.228 158.68 219.31C172.68 219.74 186.6 220.15 200.57 220.63C202.182 220.803 203.809 220.47 205.223 219.676C206.637 218.882 207.769 217.667 208.46 216.2C210.213 212.92 211.977 209.637 213.75 206.35C213.91 206.13 214.045 205.891 214.15 205.64C214.46 205.07 214.76 204.52 215.05 203.95L216.87 200.59C218.13 198.27 219.38 195.93 220.64 193.59C221.9 191.25 223.15 188.94 224.41 186.59C224.49 186.44 224.57 186.28 224.64 186.13C224.708 186.021 224.768 185.907 224.82 185.79C225.547 184.457 226.273 183.123 227 181.79C227.07 181.67 227.14 181.54 227.22 181.43C227.496 181.014 227.807 180.623 228.15 180.26L228.35 180.05C229.3 179.248 230.497 178.796 231.74 178.77C232.26 178.77 232.8 178.77 233.18 178.77C234.558 179.02 235.853 179.607 236.949 180.48C238.045 181.352 238.908 182.483 239.46 183.77C242.907 191.29 246.33 198.83 249.73 206.39C252.6 212.7 255.49 219.02 258.33 225.39C259.043 226.988 260.1 228.41 261.426 229.552C262.752 230.695 264.314 231.531 266 232C280 236.44 293.963 240.927 307.89 245.46C309.19 245.846 310.375 246.545 311.343 247.495C312.31 248.445 313.03 249.617 313.44 250.91C314.23 253.33 314 255.38 312.74 257Z" stroke="#11FF9F" stroke-width="5" stroke-linejoin="round"/>
<path d="M152.78 226.36C152.64 225.606 152.64 224.834 152.78 224.08C152.655 224.835 152.655 225.605 152.78 226.36V226.36Z" stroke="#11FF9F" stroke-width="5" stroke-linejoin="round"/>
<path d="M180.92 315.59C181.41 312.72 181.92 309.83 182.44 306.96C181.98 309.573 181.523 312.183 181.07 314.79C180.732 316.301 180.822 317.877 181.33 319.34C180.844 318.153 180.702 316.854 180.92 315.59Z" stroke="#11FF9F" stroke-width="5" stroke-linejoin="round"/>
<path d="M181.69 320.14C181.552 319.882 181.431 319.615 181.33 319.34C181.436 319.613 181.556 319.88 181.69 320.14V320.14Z" stroke="#11FF9F" stroke-width="5" stroke-linejoin="round"/>
<path d="M185.66 265.85L184.16 264.1C184.67 264.68 185.2 265.24 185.66 265.85Z" stroke="#11FF9F" stroke-width="5" stroke-linejoin="round"/>
<path d="M186.58 283.57C185.18 291.37 183.8 299.167 182.44 306.96C183.35 301.76 184.27 296.54 185.2 291.34C185.65 288.75 186.12 286.15 186.58 283.57Z" stroke="#11FF9F" stroke-width="5" stroke-linejoin="round"/>
<path d="M192.85 323.76L200.49 321.11C197.42 322.17 194.37 323.23 191.31 324.31C190.31 324.679 189.241 324.819 188.18 324.72C189.786 324.723 191.376 324.396 192.85 323.76V323.76Z" stroke="#11FF9F" stroke-width="5" stroke-linejoin="round"/>
<path d="M213.73 206.19C214.16 205.39 214.59 204.59 215.03 203.79C214.74 204.36 214.44 204.91 214.13 205.48C214.025 205.731 213.89 205.97 213.73 206.19V206.19Z" stroke="#11FF9F" stroke-width="5" stroke-linejoin="round"/>
<path d="M224.62 186C224.55 186.15 224.47 186.31 224.39 186.46C223.13 188.78 221.88 191.09 220.62 193.46C219.36 195.83 218.11 198.11 216.85 200.46L215 203.79C218.213 197.87 221.42 191.94 224.62 186Z" stroke="#11FF9F" stroke-width="5" stroke-linejoin="round"/>
<path d="M227.2 181.31C227.448 180.875 227.762 180.48 228.13 180.14C227.787 180.503 227.476 180.894 227.2 181.31V181.31Z" stroke="#11FF9F" stroke-width="5" stroke-linejoin="round"/>
<path d="M236 311.79C236.26 311.92 236.54 312.05 236.78 312.19C236.49 312.04 236.2 311.89 235.91 311.76L236 311.79Z" stroke="#11FF9F" stroke-width="5" stroke-linejoin="round"/>
<path d="M236.85 312.22C238.404 313.117 239.894 314.119 241.31 315.22C240.4 314.59 239.48 313.94 238.57 313.29C238 312.9 237.41 312.54 236.85 312.22Z" stroke="#11FF9F" stroke-width="5" stroke-linejoin="round"/>
<path d="M276.15 339.67C276.851 340.098 277.604 340.434 278.39 340.67C277.6 340.443 276.846 340.106 276.15 339.67V339.67Z" stroke="#11FF9F" stroke-width="5" stroke-linejoin="round"/>
<path d="M278.39 340.63L278.76 340.71L278.39 340.63Z" stroke="#11FF9F" stroke-width="5" stroke-linejoin="round"/>
<path d="M275.49 339.27C275.71 339.42 275.93 339.53 276.15 339.67L275.49 339.27Z" stroke="#11FF9F" stroke-width="5" stroke-linejoin="round"/>
<path d="M278.76 340.71C278.974 340.759 279.191 340.792 279.41 340.81C279.19 340.79 279 340.75 278.76 340.71Z" stroke="#11FF9F" stroke-width="5" stroke-linejoin="round"/>
<path d="M279.41 340.81C279.743 340.841 280.077 340.841 280.41 340.81C280.077 340.841 279.743 340.841 279.41 340.81Z" stroke="#11FF9F" stroke-width="5" stroke-linejoin="round"/>
<path d="M282.42 340.3C283.108 339.964 283.739 339.522 284.29 338.99C283.851 339.462 283.333 339.854 282.76 340.15C282.651 340.208 282.537 340.258 282.42 340.3V340.3Z" stroke="#11FF9F" stroke-width="5" stroke-linejoin="round"/>
<path d="M293.53 272.5L294.73 271.55L292.06 273.68C292.28 273.26 293.18 272.79 293.53 272.5Z" stroke="#11FF9F" stroke-width="5" stroke-linejoin="round"/>
<path d="M312.72 257C312.421 257.366 312.086 257.701 311.72 258L310.78 258.76C311.467 258.173 312.113 257.587 312.72 257Z" stroke="#11FF9F" stroke-width="5" stroke-linejoin="round"/>
</svg>
